<?xml version="1.0" encoding="utf-8"?>
<svg xmlns="http://www.w3.org/2000/svg" height="16" width="16" viewBox="0 0 16 16">
  <g>
    <path id="path1" transform="rotate(0,8,8) translate(4,5.62038962631245) scale(0.250485302493426,0.250485302493426)  " fill="#000000" d="M4.9500015,8.0299962L6.3640018,9.4439891 3.8079631,12.000015 12.938999,12.000015 12.938999,14.000015 3.8483374,14.000015 6.3640018,16.514956 4.9500015,17.928948 0,12.979972z M9.6197217,2L19.438003,9.2569755 29.256285,2z M7.9380018,0L30.938002,0C31.490004,2.8178295E-07,31.938002,0.4468997,31.938002,1.0000005L31.938002,18C31.938002,18.552979,31.490004,19,30.938002,19L7.9380018,19C7.3859997,19,6.9380016,18.552979,6.9380018,18L6.9380018,16 8.9380019,16 8.9380019,17 29.938002,17 29.938002,3.9821892 20.032002,11.30396C19.856003,11.43496 19.647002,11.499959 19.438003,11.499959 19.229003,11.499959 19.020002,11.43496 18.844003,11.30396L8.9380019,3.9821873 8.9380019,10 6.9380018,10 6.9380018,1.0000005C6.9380016,0.4468997,7.3859997,2.8178295E-07,7.9380018,0z" />
  </g>
</svg>

