<?xml version="1.0" encoding="utf-8"?>
<svg xmlns="http://www.w3.org/2000/svg" height="32" width="32" viewBox="0 0 32 32">
  <g>
    <path id="path1" transform="rotate(0,16,16) translate(0,0.0474996566772461) scale(1,1)  " fill="#000000" d="M23.100006,9.5000782L25.299988,12.100105 13.399994,22.500186 6.7000122,14.700118 9.3000183,12.500103 13.800018,17.700143z M3.2000122,1.6000195C2.3000183,1.6000192,1.6000061,2.3000219,1.6000061,3.2000232L1.6000061,28.800241C1.6000061,29.700242,2.3000183,30.40026,3.2000122,30.40026L28.799988,30.40026C29.700012,30.40026,30.400024,29.700242,30.400024,28.800241L30.400024,3.2000232C30.400024,2.3000219,29.700012,1.6000192,28.799988,1.6000195z M3.2000122,0L28.700012,0C30.5,-1.5262231E-08,32,1.5000123,32,3.2000232L32,28.700233C32,30.500251,30.5,31.900271,28.799988,31.900271L3.2000122,31.900271C1.5,32.000262,0,30.500251,0,28.800241L0,3.2000232C0,1.5000123,1.5,-1.5262231E-08,3.2000122,0z" />
  </g>
</svg>

