<?xml version="1.0" encoding="utf-8"?>
<svg xmlns="http://www.w3.org/2000/svg" height="32" width="32" viewBox="0 0 32 32">
  <g>
    <path id="path1" transform="rotate(0,16,16) translate(1.06280393157052,1) scale(0.937500111758722,0.937500111758722)  " fill="#000000" d="M6.2506367,1.4283834C5.8956404,1.4283833 5.38264,1.5803589 4.6546427,2.1253658 3.375635,3.0833617 1.5376364,5.5483272 1.44764,7.3862865 1.2636342,11.164255 2.3056422,14.495207 4.6356455,17.575156 7.9626432,21.975127 12.457641,25.860056 14.667649,27.398062 16.875642,28.93503 20.346653,30.738018 24.206657,30.562025 27.512659,30.415024 29.60766,28.20805 29.957651,27.464041 30.495647,26.323063 30.575649,25.613081 30.225656,25.08907 29.656656,24.235077 27.682657,22.271113 26.627647,21.347113 25.720649,20.55214 25.031654,20.35515 24.323646,20.697127 23.144643,21.265112 22.561651,21.855131 21.897649,22.746113 20.990652,23.967106 19.302646,23.928105 19.109653,23.922093 17.909641,23.870091 15.897646,21.859129 11.842635,17.371178 10.943648,16.377173 10.13664,15.484208 9.5526405,14.893213L9.5096412,14.850214C8.9126411,14.248201,7.0946465,12.418237,9.216642,10.227255L10.88864,8.50227C10.900649,8.4892695 12.159637,7.1163008 11.585646,6.3512957 10.592635,5.0273378 8.2046476,2.4633436 6.8666344,1.6173764 6.7596398,1.549384 6.5686451,1.4283833 6.2506367,1.4283834z M6.1940208,0.00052849691C6.7007881,-0.0096439161 7.1797324,0.12702116 7.6286436,0.41139757 9.2356392,1.4273762 11.802641,4.2613256 12.727645,5.4953192 13.782639,6.9013074 12.711639,8.6712744 11.912642,9.4952691L10.241636,11.219247C9.1756416,12.320247,9.6856361,13.002215,10.522643,13.845222L10.566649,13.890204C11.162642,14.491209 11.985641,15.402209 12.901641,16.415198 14.777649,18.49116 18.26865,22.356102 19.181644,22.498099 19.478641,22.499106 20.356647,22.4291 20.753652,21.895109 21.514654,20.872143 22.274648,20.100149 23.706655,19.412138 25.564643,18.516154 27.070655,19.839134 27.567651,20.273152 28.56965,21.152138 30.712658,23.247113 31.412654,24.298094 32.250652,25.555067 31.765651,26.975064 31.248653,28.072035 30.706661,29.225035 28.196649,31.812987 24.270652,31.986994 24.075645,31.99499 23.881643,31.999996 23.689642,31.999996 19.650653,31.999996 16.132646,30.157 13.852646,28.568032 11.028639,26.603058 6.564632,22.49111 3.4966372,18.435162 0.95763417,15.079215 -0.17836809,11.442236 0.022636127,7.3172872 0.13863345,4.9433239 2.2906428,2.1133724 3.8006385,0.9833813 4.6532665,0.34392312 5.4533602,0.015396311 6.1940208,0.00052849691z" />
  </g>
</svg>

