<?xml version="1.0" encoding="utf-8"?>
<svg xmlns="http://www.w3.org/2000/svg" height="16" width="16" viewBox="0 0 16 16">
  <g>
    <path id="path1" transform="rotate(0,8,8) translate(4.04350018760563,4) scale(0.250000014901162,0.250000014901162)  " fill="#000000" d="M24.309219,0.00028020232C28.203269,-0.024721487 30.216287,1.6312756 30.409282,1.8102762 30.409282,1.8102763 32.473296,3.1702758 31.281301,4.3742699L25.31524,10.405271C24.253219,11.479276 21.179216,9.9992656 21.277208,6.8522724 21.302202,6.0642709 20.999191,4.9622745 18.629173,6.0142755 16.524173,6.9492725 13.085115,9.7012767 11.349106,11.477261 9.5950912,13.228268 6.8710669,16.70527 5.9480537,18.834266 4.9080356,21.231267 5.999049,21.53626 6.7760647,21.510259 9.8901074,21.412267 11.356125,24.519259 10.293096,25.596255L4.3270362,31.624251C3.1350391,32.831252 1.7910324,30.744262 1.7910321,30.744262 1.624008,30.560256 0.14099237,28.718263 0.0090026852,25.168261L0.0079956051,25.098254 0,25.098254 0,23.006261 0.093995086,23.006261 0.097992889,22.969258C0.35501414,20.699256 1.1550094,17.92727 2.9180267,14.645259 4.0850299,12.466274 6.01205,10.158262 8.044082,8.1332702 10.047092,6.0792703 12.330133,4.1302742 14.485153,2.9502751 18.544181,0.72227963 21.813224,0.01627885 24.309219,0.00028020232z" />
  </g>
</svg>

